<svg xmlns="http://www.w3.org/2000/svg" height="800" width="1200" viewBox="-13.33254 -5.266325 115.54868 31.59795"><g fill-rule="evenodd" fill="#221F20"><path d="M.2606 15.6221c-.014-1.404-.135-3.027-.258-4.268a.513.513 0 01.433-.559l.02-.003a.518.518 0 01.58.38 5.99 5.99 0 00.742 1.767c.308.484 1.386 2.155 3.65 2.155 1.65 0 2.86-1.166 2.86-2.64 0-1.362-1.1-1.912-3.255-2.726-.637-.264-1.297-.505-1.935-.791-.88-.419-2.948-1.386-2.948-4.07 0-2.989 2.398-4.749 5.455-4.749.742 0 1.798.104 2.856.59.234.107.51.024.648-.192l.175-.276a.515.515 0 01.422-.24.519.519 0 01.53.48 55.8 55.8 0 00.418 3.743.518.518 0 11-.994.255c-.276-.729-.432-1.07-.735-1.524-.725-.989-1.693-1.67-2.902-1.67-1.562 0-2.485 1.274-2.485 2.308 0 1.187 1.055 1.693 1.517 1.913.946.462 1.935.77 2.925 1.166 1.583.616 3.76 1.562 3.76 4.465 0 2.858-2.287 5.255-5.915 5.255-1.803 0-2.978-.57-3.66-1.003a.514.514 0 00-.714.17l-.195.322a.518.518 0 01-.402.246l-.037.003a.514.514 0 01-.556-.507m11.962-.126c0-.219.157-.405.371-.441.332-.055.734-.198.795-.62.066-.507.066-1.826.066-2.156 0-.77-.022-2.023-.022-2.793 0-1.104-.37-1.407-.89-1.554a.445.445 0 01-.32-.429v-.052c0-.219.158-.403.373-.44 1.095-.192 2.751-.66 3.62-.96a.446.446 0 01.57.283c.018.058.035.113.05.17a.447.447 0 00.66.26c.83-.482 1.617-.84 2.776-.84.836 0 1.672.22 2.354.703 1.071.744 1.25 1.88 1.34 3.083v1.931c0 .33-.043 2.045-.043 2.42 0 .556.151.895.878 1.03a.442.442 0 01.353.439.446.446 0 01-.475.446c-.623-.042-1.564-.069-3.11-.069-.872 0-1.353.024-1.8.063a.447.447 0 01-.487-.445v-.094c0-.201.135-.379.33-.43.643-.174.723-.481.704-1.82l-.044-3.431c-.022-1.055-.066-2.265-1.496-2.265-.595 0-1.056.218-1.5.553a.451.451 0 00-.184.374c.035 1.102.035 4.23.035 5.208 0 1.009.175 1.288.712 1.43.192.05.322.23.322.429v.058a.447.447 0 01-.475.447c-.747-.047-1.707-.077-3.506-.077-.692 0-1.094.022-1.469.058a.446.446 0 01-.488-.446zm19.156-3.662a.447.447 0 00-.56-.43c-.742.188-1.727.621-1.727 1.777 0 .594.308 1.253 1.144 1.253.426 0 .68-.129.947-.305a.444.444 0 00.196-.37zm5.082 2.544a.447.447 0 01.041.66c-1.057 1.07-2.105 1.288-2.682 1.288a2.85 2.85 0 01-1.649-.55 2.385 2.385 0 01-.408-.42.44.44 0 00-.594-.102c-.605.393-1.854 1.093-3.242 1.093-2.024 0-2.507-1.363-2.507-2.176 0-2.513 3.867-3.564 5.618-3.878a.444.444 0 00.364-.436c.002-.68.003-1.48-.089-1.756-.264-.77-1.143-.77-1.253-.77-.726 0-1.122.44-1.254.924-.066.286-.066.594-.132.88-.176.747-.792 1.033-1.341 1.033-.682 0-1.32-.44-1.32-1.253 0-1.628 3.013-2.948 5.74-2.948 1.891 0 3.276.616 3.276 2.442l-.043 4.904c-.022.374-.045 1.23.527 1.23.142 0 .276-.074.402-.172a.443.443 0 01.546.007z"/><path d="M42.6496 14.8301c1.627 0 2.22-2.265 2.22-3.76 0-1.584-.66-3.695-2.286-3.695-1.474 0-1.474 1.518-1.474 1.979 0 .506.023 2.969.023 3.519 0 .704 0 1.957 1.517 1.957zm-5.168-5.212c.04-1.68-.2-2.076-.95-2.283a.425.425 0 01-.304-.412v-.11a.42.42 0 01.372-.419c1.485-.159 3.056-.564 3.829-.774a.417.417 0 01.52.32c.023.102.046.227.074.384a.421.421 0 00.636.288c.863-.553 1.714-.842 2.794-.842 2.661 0 4.31 2.287 4.31 4.706 0 3.32-2.353 5.63-5.101 5.63-.843 0-1.457-.215-1.882-.444a.422.422 0 00-.625.368v2.538c0 .851.052 1.507.962 1.661a.416.416 0 01.335.414.422.422 0 01-.432.422 150.558 150.558 0 00-3.262-.055c-.827 0-1.362.015-2.066.045a.422.422 0 01-.442-.42v-.055c0-.204.142-.387.344-.421.818-.14.888-.59.888-1.217.022-.418.022-1.715.022-2.199zm22.79 6.356c-.893-.066-1.477-.066-3.816-.066-1.28 0-1.791.015-2.54.068a.502.502 0 01-.11-.996c1.233-.173 1.286-.618 1.286-3.405v-6.993c-.022-1.671-.043-2.177-.198-2.485-.166-.39-.427-.482-1.099-.594a.5.5 0 01-.418-.493c0-.308.232-.533.514-.525 1.236.033 2.473.05 3.708.05 1.24 0 2.035-.027 2.717-.05a.5002.5002 0 01.082.997c-1.303.163-1.303.558-1.303 3.474l.022 6.817c.044 2.31.066 2.442.33 2.793.188.222.483.339.935.4a.5.5 0 01.428.495.504.504 0 01-.538.513zm.698-.478c0-.219.157-.405.371-.441.332-.055.734-.198.795-.62.066-.507.066-1.826.066-2.156 0-.77-.022-2.023-.022-2.793 0-1.104-.37-1.407-.89-1.554a.445.445 0 01-.32-.429v-.052c0-.219.157-.403.373-.44 1.095-.192 2.75-.66 3.62-.96a.446.446 0 01.57.283c.018.058.035.113.05.17a.447.447 0 00.659.26c.83-.482 1.617-.84 2.777-.84.835 0 1.671.22 2.353.703 1.072.744 1.252 1.88 1.34 3.083.002.012.002.024.002.036v1.895c0 .33-.044 2.045-.044 2.42 0 .556.15.895.878 1.03a.442.442 0 01.353.439.446.446 0 01-.476.446c-.622-.042-1.564-.069-3.109-.069-.873 0-1.353.024-1.8.063a.447.447 0 01-.487-.445v-.094c0-.201.135-.379.33-.43.643-.174.723-.481.704-1.82l-.044-3.431c-.023-1.055-.066-2.265-1.496-2.265-.595 0-1.057.218-1.501.553a.451.451 0 00-.183.374c.035 1.102.035 4.23.035 5.208 0 1.009.174 1.288.712 1.43.192.05.322.23.322.429v.058a.447.447 0 01-.475.447c-.747-.047-1.707-.077-3.506-.077-.692 0-1.094.022-1.469.058a.446.446 0 01-.488-.446zm22.877-1.914c.276.2.314.604.072.844a6.543 6.543 0 01-4.557 1.9c-3.145 0-5.454-2.178-5.454-5.169 0-3.144 2.683-5.167 5.96-5.167 2.155 0 4.2.945 4.2 2.529 0 .747-.637 1.385-1.385 1.385-.33 0-.726-.154-.968-.396-.198-.176-.242-.286-.66-1.231-.198-.418-.638-1.166-1.319-1.166-1.276 0-1.628 2.177-1.628 3.255 0 2.485 1.408 4.156 2.947 4.156.818 0 1.495-.376 2.096-.904a.558.558 0 01.696-.036m3.037-1.215c1.078 0 2 .858 2 2.001 0 1.122-.922 1.98-1.978 1.98a1.96 1.96 0 01-1.98-1.936c0-1.363 1.056-2.045 1.958-2.045"/></g></svg>